<svg width="100" height="100" viewBox="0 0 100 100" fill="none" xmlns="http://www.w3.org/2000/svg">
  <rect width="100" height="100" rx="20" fill="#0a0f1a"/>
  <circle cx="50" cy="50" r="38" fill="white"/>
  <path d="M50 20C33.4 20 20 33.4 20 50s13.4 30 30 30 30-13.4 30-30S66.6 20 50 20zm0 52c-12.1 0-22-9.9-22-22s9.9-22 22-22c4.6 0 8.8 1.4 12.3 3.8C56.5 35.2 50 43.8 50 50c0 8.3 5.2 15.3 12.5 18.1C58.9 70.7 54.6 72 50 72z" fill="#0a0f1a"/>
  <path d="M62 30c-3-2-7-3-10-3 5 3 9 9 9 16 0 7-4 13-9 16 3-1 7-3 10-5 5-5 8-11 8-18-2-3-5-5-8-6z" fill="#0a0f1a" opacity="0.6"/>
</svg>
